<?xml version="1.0" encoding="iso-8859-1"?>
<!-- Generator: Adobe Illustrator 19.0.0, SVG Export Plug-In . SVG Version: 6.00 Build 0)  -->
<svg xmlns="http://www.w3.org/2000/svg" xmlns:xlink="http://www.w3.org/1999/xlink" version="1.1" id="Layer_1" x="0px" y="0px" viewBox="0 0 512 512" style="enable-background:new 0 0 512 512;" xml:space="preserve" width="512px" height="512px">
<g>
	<g>
		<path d="M75.951,97.705c-19.517,0-35.394,15.877-35.394,35.394s15.877,35.394,35.394,35.394c19.516,0,35.393-15.877,35.393-35.394    S95.468,97.705,75.951,97.705z M75.951,148.096c-8.268,0-14.996-6.727-14.996-14.996s6.727-14.996,14.996-14.996    c8.268,0,14.995,6.727,14.995,14.996S84.219,148.096,75.951,148.096z" fill="#dc8a0a"/>
	</g>
</g>
<g>
	<g>
		<path d="M501.801,0H256H10.199C4.567,0,0,4.566,0,10.199V256v245.801C0,507.434,4.567,512,10.199,512H256h245.801    c5.632,0,10.199-4.566,10.199-10.199V256V10.199C512,4.566,507.433,0,501.801,0z M245.801,491.602H20.398V266.199h225.402V491.602    z M245.801,245.801H20.398V20.398h225.402V245.801z M491.602,491.602H266.199V266.199h225.402V491.602z M491.602,245.801H266.199    V20.398h225.402V245.801z" fill="#dc8a0a"/>
	</g>
</g>
<g>
	<g>
		<path d="M321.752,97.705c-19.517,0-35.394,15.877-35.394,35.394s15.877,35.394,35.394,35.394    c19.516,0,35.393-15.877,35.393-35.394S341.268,97.705,321.752,97.705z M321.752,148.096c-8.268,0-14.996-6.727-14.996-14.996    s6.726-14.996,14.996-14.996c8.267,0,14.995,6.727,14.995,14.996S330.02,148.096,321.752,148.096z" fill="#dc8a0a"/>
	</g>
</g>
<g>
	<g>
		<path d="M75.951,343.506c-19.517,0-35.394,15.877-35.394,35.394s15.877,35.394,35.394,35.394    c19.516,0,35.393-15.877,35.393-35.394S95.468,343.506,75.951,343.506z M75.951,393.896c-8.268,0-14.996-6.727-14.996-14.996    s6.727-14.996,14.996-14.996c8.268,0,14.995,6.727,14.995,14.996S84.219,393.896,75.951,393.896z" fill="#dc8a0a"/>
	</g>
</g>
<g>
	<g>
		<path d="M321.752,343.506c-19.517,0-35.394,15.877-35.394,35.394s15.877,35.394,35.394,35.394    c19.516,0,35.393-15.877,35.393-35.394S341.268,343.506,321.752,343.506z M321.752,393.896c-8.268,0-14.996-6.727-14.996-14.996    s6.726-14.996,14.996-14.996c8.267,0,14.995,6.727,14.995,14.996S330.02,393.896,321.752,393.896z" fill="#dc8a0a"/>
	</g>
</g>
<g>
	<g>
		<path d="M217.901,56.534c-5.632,0-10.199,4.566-10.199,10.199v11.061c0,5.633,4.567,10.199,10.199,10.199    S228.1,83.427,228.1,77.794V66.733C228.1,61.1,223.533,56.534,217.901,56.534z" fill="#dc8a0a"/>
	</g>
</g>
<g>
	<g>
		<path d="M217.901,111.839c-5.632,0-10.199,4.566-10.199,10.199v97.091c0,5.633,4.567,10.199,10.199,10.199    s10.199-4.566,10.199-10.199v-97.091C228.1,116.406,223.533,111.839,217.901,111.839z" fill="#dc8a0a"/>
	</g>
</g>
</svg>
